<?xml version="1.0" encoding="UTF-8"?>
<svg width="156px" height="47px" viewBox="0 0 156 47" version="1.1" xmlns="http://www.w3.org/2000/svg" xmlns:xlink="http://www.w3.org/1999/xlink">
    <!-- Generator: Sketch 64 (93537) - https://sketch.com -->
    <title>GCB</title>
    <g id="Page-1" stroke="none" stroke-width="1" fill="none" fill-rule="evenodd">
        <path d="M9.2578125,38 L9.2578125,18.40625 L9.421875,18.40625 L16.96875,38 L22.2890625,38 L29.8359375,18.40625 L30,18.40625 L30,38 L38.671875,38 L38.671875,4.1796875 L27.1875,4.1796875 L19.7109375,24.3125 L19.546875,24.3125 L12.0703125,4.1796875 L0.5859375,4.1796875 L0.5859375,38 L9.2578125,38 Z M47.625,9.8046875 C50.3203125,9.8046875 52.3828125,7.71875 52.3828125,5.234375 C52.3828125,2.75 50.3203125,0.6640625 47.625,0.6640625 C44.9296875,0.6640625 42.8671875,2.75 42.8671875,5.234375 C42.8671875,7.71875 44.9296875,9.8046875 47.625,9.8046875 Z M52.4296875,38 L52.4296875,12.125 L42.8203125,12.125 L42.8203125,38 L52.4296875,38 Z M65.6484375,38 L65.6484375,24.921875 C65.6484375,21.3125 67.5,19.484375 71.109375,19.484375 C72.09375,19.484375 73.078125,19.671875 73.8984375,20.0234375 L73.8984375,11.9375 C73.171875,11.6796875 72.3984375,11.5625 71.578125,11.5625 C68.484375,11.5625 66.4921875,13.390625 65.8359375,16.765625 L65.6484375,16.765625 L65.6484375,12.125 L56.0390625,12.125 L56.0390625,38 L65.6484375,38 Z M88.546875,38.5625 C97.546875,38.5625 100.5,33.2890625 101.273438,29.9140625 L101.34375,29.609375 L92.7890625,29.609375 L92.765625,29.6796875 C92.5078125,30.4296875 91.265625,31.953125 88.734375,31.953125 C86.109375,31.953125 84.515625,30.1953125 84.421875,27.21875 L101.460938,27.21875 L101.460938,24.5 C101.460938,16.625 96.3046875,11.5625 88.2421875,11.5625 C80.15625,11.5625 75.046875,16.625 75.046875,25.0390625 L75.046875,25.0625 C75.046875,33.4765625 80.15625,38.5625 88.546875,38.5625 Z M92.4609375,21.78125 L84.5390625,21.78125 C84.9609375,19.484375 86.4140625,18.171875 88.5,18.171875 C90.5859375,18.171875 92.0390625,19.484375 92.4609375,21.78125 Z M108.960938,46.34375 C115.734375,46.34375 120.351562,44.5859375 122.554688,37.390625 L130.265625,12.125 L120.117188,12.125 L116.203125,31.109375 L116.015625,31.109375 L112.078125,12.125 L101.414062,12.125 L110.109375,38 L110.015625,38.2578125 C109.78125,38.890625 108.960938,39.40625 107.460938,39.40625 C105.914062,39.40625 104.789062,39.21875 104.179688,39.1015625 L104.179688,45.9453125 C105.257812,46.1328125 107.085938,46.34375 108.960938,46.34375 Z M138.960938,38.328125 C142.289062,38.328125 144.703125,36.9453125 146.15625,34.484375 L146.34375,34.484375 L146.34375,38 L155.953125,38 L155.953125,20.3984375 C155.953125,15.1484375 151.148438,11.5625 143.953125,11.5625 C136.40625,11.5625 131.929688,15.0078125 131.53125,20.28125 L131.507812,20.5859375 L140.085938,20.5859375 L140.132812,20.3515625 C140.34375,19.296875 141.445312,18.4296875 143.414062,18.4296875 C145.382812,18.4296875 146.34375,19.3671875 146.34375,20.8671875 L146.34375,21.921875 L140.90625,22.2734375 C134.015625,22.7421875 130.171875,25.484375 130.171875,30.4765625 L130.171875,30.5 C130.171875,34.953125 133.734375,38.328125 138.960938,38.328125 Z M142.476562,31.8828125 C140.695312,31.8828125 139.546875,31.15625 139.546875,29.796875 L139.546875,29.7734375 C139.546875,28.484375 140.460938,27.6875 142.5,27.546875 L146.34375,27.265625 L146.34375,28.90625 C146.34375,30.6171875 144.773438,31.8828125 142.476562,31.8828125 Z" id="Mireya" fill="#FFFFFF" fill-rule="nonzero"></path>
    </g>
</svg>